<svg width="410" height="12" viewBox="0 0 410 12" fill="none" xmlns="http://www.w3.org/2000/svg">
<path d="M1 8.55086L1.2686 8.67142L1.5372 8.78804L1.80579 8.90056L2.07439 9.00884L2.34299 9.11275L2.61159 9.21215L2.88018 9.30691L3.14878 9.39692L3.41738 9.48205L3.68598 9.5622L3.95458 9.63728L4.22317 9.70717L4.49177 9.7718L4.76037 9.83108L5.02897 9.88493L5.29756 9.93329L5.56616 9.97609L5.83476 10.0133L6.10336 10.0448L6.37196 10.0707L6.64055 10.0908L6.90915 10.1051L7.17775 10.1137L7.44635 10.1165L7.71494 10.1135L7.98354 10.1047L8.25214 10.0902L8.52074 10.0698L8.78933 10.0438L9.05793 10.0121L9.32653 9.97467L9.59513 9.93167L9.86373 9.88312L10.1323 9.82907L10.4009 9.7696L10.6695 9.70479L10.9381 9.63471L11.2067 9.55945L11.4753 9.47912L11.7439 9.39381L12.0125 9.30363L12.2811 9.20871L12.5497 9.10915L12.8183 9.00508L13.0869 8.89665L13.3555 8.78398L13.6241 8.66722L13.8927 8.54652L14.1613 8.42204L14.4299 8.29393L14.6985 8.16235L14.9671 8.02747L15.2357 7.88947L15.5043 7.74852L15.7729 7.60481L16.0415 7.4585L16.3101 7.3098L16.5787 7.15889L16.8473 7.00596L17.1159 6.85121L17.3845 6.69483L17.6531 6.53703L17.9217 6.37801L18.1903 6.21796L18.4589 6.0571L18.7275 5.89563L18.996 5.73375L19.2646 5.57167L19.5332 5.40959L19.8018 5.24774L20.0704 5.0863L20.339 4.92549L20.6076 4.76551L20.8762 4.60657L21.1448 4.44886L21.4134 4.29259L21.682 4.13796L21.9506 3.98517L22.2192 3.83441L22.4878 3.68587L22.7564 3.53975L23.025 3.39622L23.2936 3.25547L23.5622 3.11769L23.8308 2.98304L24.0994 2.8517L24.368 2.72384L24.6366 2.59962L24.9052 2.4792L25.1738 2.36272L25.4424 2.25035L25.711 2.14222L25.9796 2.03847L26.2482 1.93923L26.5168 1.84463L26.7854 1.7548L27.054 1.66984L27.3226 1.58986L27.5912 1.51498L27.8598 1.44526L28.1284 1.38083L28.397 1.32174L28.6656 1.26808L28.9342 1.21992L29.2028 1.17731L29.4714 1.14031L29.74 1.10898L30.0086 1.08334L30.2772 1.06344L30.5458 1.04929L30.8144 1.04092L31.0829 1.03833L31.3515 1.04153L31.6201 1.05052L31.8887 1.06528L32.1573 1.0858L32.4259 1.11204L32.6945 1.14397L32.9631 1.18157L33.2317 1.22477L33.5003 1.27352L33.7689 1.32776L34.0375 1.38742L34.3061 1.45242L34.5747 1.52269L34.8433 1.59812L35.1119 1.67863L35.3805 1.76411L35.6491 1.85446L35.9177 1.94955L36.1863 2.04927L36.4549 2.15349L36.7235 2.26208L36.9921 2.3749L37.2607 2.4918L37.5293 2.61264L37.7979 2.73725L38.0665 2.86549L38.3351 2.99719L38.6037 3.13218L38.8723 3.27029L39.1409 3.41134L39.4095 3.55515L39.6781 3.70154L39.9467 3.85032L40.2153 4.00131L40.4839 4.1543L40.7525 4.30912L41.0211 4.46555L41.2897 4.62339L41.5583 4.78246L41.8269 4.94253L42.0955 5.10342L42.3641 5.26491L42.6327 5.4268L42.9012 5.58889L43.1698 5.75096L43.4384 5.9128L43.707 6.07422L43.9756 6.23501L44.2442 6.39495L44.5128 6.55386L44.7814 6.71151L45.05 6.86773L45.3186 7.02229L45.5872 7.17502L45.8558 7.3257L46.1244 7.47416L46.393 7.6202L46.6616 7.76363L46.9302 7.90427L47.1988 8.04195L47.4674 8.17648L47.736 8.3077L48.0046 8.43544L48.2732 8.55953L48.5418 8.67982L48.8104 8.79615L49.079 8.90837L49.3476 9.01635L49.6162 9.11994L49.8848 9.21901L50.1534 9.31344L50.422 9.40311L50.6906 9.48789L50.9592 9.56769L51.2278 9.6424L51.4964 9.71192L51.765 9.77617L52.0336 9.83507L52.3022 9.88854L52.5708 9.9365L52.8394 9.97891L53.108 10.0157L53.3766 10.0468L53.6452 10.0723L53.9138 10.092L54.1824 10.1059L54.451 10.1141L54.7196 10.1165L54.9881 10.1131L55.2567 10.1039L55.5253 10.0889L55.7939 10.0682L56.0625 10.0417L56.3311 10.0096L56.5997 9.97181L56.8683 9.92842L57.1369 9.87947L57.4055 9.82504L57.6741 9.76519L57.9427 9.7L58.2113 9.62955L58.4799 9.55393L58.7485 9.47324L59.0171 9.38759L59.2857 9.29707L59.5543 9.20181L59.8229 9.10193L60.0915 8.99755L60.3601 8.88881L60.6287 8.77585L60.8973 8.6588L61.1659 8.53783L61.4345 8.41308L61.7031 8.28472L61.9717 8.1529L62.2403 8.0178L62.5089 7.87959L62.7775 7.73844L63.0461 7.59453L63.3147 7.44805L63.5833 7.29918L63.8519 7.14812L64.1205 6.99506L64.3891 6.84019L64.6577 6.6837L64.9263 6.52581L65.1949 6.36671L65.4635 6.2066L65.7321 6.04568L66.0007 5.88417L66.2693 5.72227L66.5379 5.56019L66.8064 5.39812L67.075 5.23629L67.3436 5.07489L67.6122 4.91413L67.8808 4.75422L68.1494 4.59535L68.418 4.43774L68.6866 4.28159L68.9552 4.12708L69.2238 3.97443L69.4924 3.82382L69.761 3.67544L70.0296 3.5295L70.2982 3.38616L70.5668 3.24562L70.8354 3.10805L71.104 2.97363L71.3726 2.84253L71.6412 2.71492L71.9098 2.59096L72.1784 2.47081L72.447 2.35462L72.7156 2.24255L72.9842 2.13472L73.2528 2.03129L73.5214 1.93238L73.79 1.83812L74.0586 1.74862L74.3272 1.66401L74.5958 1.5844L74.8644 1.50987L75.133 1.44053L75.4016 1.37647L75.6702 1.31776L75.9388 1.26448L76.2074 1.21671L76.476 1.17451L76.7446 1.13791L77.0132 1.10698L77.2818 1.08174L77.5504 1.06225L77.819 1.04851L78.0876 1.04054L78.3562 1.03837L78.6248 1.04198L78.8933 1.05137L79.1619 1.06655L79.4305 1.08747L79.6991 1.11411L79.9677 1.14645L80.2363 1.18444L80.5049 1.22804L80.7735 1.27718L81.0421 1.33181L81.3107 1.39185L81.5793 1.45722L81.8479 1.52786L82.1165 1.60365L82.3851 1.68452L82.6537 1.77035L82.9223 1.86104L83.1909 1.95647L83.4595 2.05651L83.7281 2.16104L83.9967 2.26994L84.2653 2.38305L84.5339 2.50023L84.8025 2.62134L85.0711 2.74622L85.3397 2.87471L85.6083 3.00664L85.8769 3.14186L86.1455 3.28018L86.4141 3.42143L86.6827 3.56543L86.9513 3.712L87.2199 3.86094L87.4885 4.01208L87.7571 4.16521L88.0257 4.32014L88.2943 4.47668L88.5629 4.63462L88.8315 4.79376L89.1001 4.9539L89.3687 5.11484L89.6373 5.27637L89.9059 5.43828L90.1745 5.60037L90.4431 5.76243L90.7116 5.92425L90.9802 6.08563L91.2488 6.24636L91.5174 6.40624L91.786 6.56506L92.0546 6.72263L92.3232 6.87873L92.5918 7.03317L92.8604 7.18576L93.129 7.33629L93.3976 7.48458L93.6662 7.63044L93.9348 7.77368L94.2034 7.91412L94.472 8.05158L94.7406 8.18588L95.0092 8.31686L95.2778 8.44434L95.5464 8.56817L95.815 8.68818L96.0836 8.80423L96.3522 8.91616L96.6208 9.02383L96.8894 9.12711L97.158 9.22585L97.4266 9.31995L97.6952 9.40927L97.9638 9.49371L98.2324 9.57315L98.501 9.64749L98.7696 9.71665L99.0382 9.78052L99.3068 9.83903L99.5754 9.89212L99.844 9.93969L100.113 9.9817L100.381 10.0181L100.65 10.0488L100.918 10.0739L101.187 10.0932L101.456 10.1067L101.724 10.1144L101.993 10.1164L102.261 10.1126L102.53 10.103L102.799 10.0876L103.067 10.0665L103.336 10.0397L103.604 10.0071L103.873 9.96892L104.142 9.92513L104.41 9.87579L104.679 9.82097L104.947 9.76075L105.216 9.69518L105.485 9.62436L105.753 9.54838L106.022 9.46734L106.29 9.38133L106.559 9.29048L106.828 9.19489L107.096 9.09468L107.365 8.98999L107.633 8.88095L107.902 8.76769L108.171 8.65037L108.439 8.52912L108.708 8.40411L108.976 8.2755L109.245 8.14344L109.513 8.00811L109.782 7.86968L110.051 7.72833L110.319 7.58424L110.588 7.43758L110.856 7.28856L111.125 7.13735L111.394 6.98415L111.662 6.82915L111.931 6.67257L112.199 6.51458L112.468 6.3554L112.737 6.19523L113.005 6.03426L113.274 5.87272L113.542 5.7108L113.811 5.54871L114.08 5.38666L114.348 5.22485L114.617 5.06348L114.885 4.90278L115.154 4.74293L115.423 4.58415L115.691 4.42664L115.96 4.27059L116.228 4.11621L116.497 3.96369L116.766 3.81324L117.034 3.66503L117.303 3.51926L117.571 3.37611L117.84 3.23577L118.109 3.09842L118.377 2.96424L118.646 2.83338L118.914 2.70602L119.183 2.58233L119.452 2.46245L119.72 2.34655L119.989 2.23477L120.257 2.12725L120.526 2.02414L120.795 1.92555L121.063 1.83162L121.332 1.74247L121.6 1.65821L121.869 1.57895L122.138 1.50478L122.406 1.43582L122.675 1.37213L122.943 1.31381L123.212 1.26092L123.481 1.21354L123.749 1.17173L124.018 1.13553L124.286 1.105L124.555 1.08018L124.824 1.06108L125.092 1.04775L125.361 1.0402L125.629 1.03843L125.898 1.04245L126.167 1.05226L126.435 1.06784L126.704 1.08916L126.972 1.11622L127.241 1.14896L127.51 1.18735L127.778 1.23133L128.047 1.28087L128.315 1.33588L128.584 1.3963L128.853 1.46205L129.121 1.53306L129.39 1.60921L129.658 1.69044L129.927 1.77662L130.196 1.86764L130.464 1.9634L130.733 2.06376L131.001 2.16861L131.27 2.27781L131.539 2.39121L131.807 2.50868L132.076 2.63006L132.344 2.7552L132.613 2.88394L132.881 3.01611L133.15 3.15155L133.419 3.29009L133.687 3.43154L133.956 3.57573L134.224 3.72247L134.493 3.87158L134.762 4.02286L135.03 4.17612L135.299 4.33118L135.567 4.48782L135.836 4.64585L136.105 4.80507L136.373 4.96528L136.642 5.12626L136.91 5.28782L137.179 5.44975L137.448 5.61184L137.716 5.7739L137.985 5.93569L138.253 6.09704L138.522 6.25771L138.791 6.41752L139.059 6.57627L139.328 6.73373L139.596 6.88972L139.865 7.04404L140.134 7.19649L140.402 7.34687L140.671 7.49499L140.939 7.64067L141.208 7.78372L141.477 7.92395L141.745 8.0612L142.014 8.19527L142.282 8.32601L142.551 8.45323L142.82 8.57679L143.088 8.69653L143.357 8.81229L143.625 8.92392L143.894 9.03129L144.163 9.13425L144.431 9.23267L144.7 9.32643L144.968 9.41541L145.237 9.4995L145.506 9.57858L145.774 9.65256L146.043 9.72135L146.311 9.78484L146.58 9.84297L146.849 9.89567L147.117 9.94285L147.386 9.98447L147.654 10.0205L147.923 10.0508L148.192 10.0754L148.46 10.0943L148.729 10.1074L148.997 10.1148L149.266 10.1163L149.535 10.1121L149.803 10.1021L150.072 10.0863L150.34 10.0648L150.609 10.0375L150.878 10.0046L151.146 9.96601L151.415 9.92182L151.683 9.87209L151.952 9.81689L152.221 9.75628L152.489 9.69034L152.758 9.61915L153.026 9.54281L153.295 9.46141L153.564 9.37506L153.832 9.28387L154.101 9.18794L154.369 9.08741L154.638 8.98241L154.907 8.87307L155.175 8.75951L155.444 8.64191L155.712 8.52039L155.981 8.39512L156.25 8.26626L156.518 8.13396L156.787 7.99841L157.055 7.85977L157.324 7.71822L157.592 7.57394L157.861 7.42711L158.13 7.27792L158.398 7.12656L158.667 6.97323L158.935 6.81812L159.204 6.66142L159.473 6.50335L159.741 6.34409L160.01 6.18385L160.278 6.02284L160.547 5.86127L160.816 5.69933L161.084 5.53723L161.353 5.37519L161.621 5.2134L161.89 5.05208L162.159 4.89143L162.427 4.73165L162.696 4.57295L162.964 4.41554L163.233 4.2596L163.502 4.10535L163.77 3.95297L164.039 3.80267L164.307 3.65462L164.576 3.50903L164.845 3.36608L165.113 3.22595L165.382 3.08882L165.65 2.95486L165.919 2.82425L166.188 2.69714L166.456 2.57371L166.725 2.45411L166.993 2.3385L167.262 2.22702L167.531 2.11981L167.799 2.017L168.068 1.91874L168.336 1.82515L168.605 1.73634L168.874 1.65243L169.142 1.57353L169.411 1.49973L169.679 1.43113L169.948 1.36782L170.217 1.30988L170.485 1.25738L170.754 1.2104L171.022 1.16898L171.291 1.13318L171.56 1.10306L171.828 1.07864L172.097 1.05995L172.365 1.04703L172.634 1.03989L172.903 1.03853L173.171 1.04296L173.44 1.05317L173.708 1.06916L173.977 1.09089L174.246 1.11835L174.514 1.15149L174.783 1.19028L175.051 1.23466L175.32 1.28458L175.589 1.33998L175.857 1.40078L176.126 1.46691L176.394 1.53828L176.663 1.6148L176.932 1.69638L177.2 1.7829L177.469 1.87427L177.737 1.97036L178.006 2.07104L178.275 2.1762L178.543 2.2857L178.812 2.39939L179.08 2.51715L179.349 2.6388L179.618 2.7642L179.886 2.89319L180.155 3.0256L180.423 3.16126L180.692 3.30001L180.96 3.44166L181.229 3.58604L181.498 3.73295L181.766 3.88222L182.035 4.03365L182.303 4.18705L182.572 4.34222L182.841 4.49897L183.109 4.65709L183.378 4.81638L183.646 4.97665L183.915 5.13768L184.184 5.29928L184.452 5.46123L184.721 5.62333L184.989 5.78536L185.258 5.94713L185.527 6.10844L185.795 6.26906L186.064 6.4288L186.332 6.58746L186.601 6.74483L186.87 6.90071L187.138 7.0549L187.407 7.2072L187.675 7.35743L187.944 7.50539L188.213 7.65089L188.481 7.79375L188.75 7.93377L189.018 8.0708L189.287 8.20464L189.556 8.33513L189.824 8.46211L190.093 8.5854L190.361 8.70486L190.63 8.82033L190.899 8.93167L191.167 9.03873L191.436 9.14137L191.704 9.23947L191.973 9.33289L192.242 9.42153L192.51 9.50526L192.779 9.58399L193.047 9.65761L193.316 9.72602L193.585 9.78913L193.853 9.84689L194.122 9.89919L194.39 9.94598L194.659 9.9872L194.928 10.0228L195.196 10.0527L195.465 10.0769L195.733 10.0954L196.002 10.1081L196.271 10.1151L196.539 10.1162L196.808 10.1116L197.076 10.1012L197.345 10.085L197.614 10.0631L197.882 10.0354L198.151 10.002L198.419 9.96306L198.688 9.91848L198.957 9.86836L199.225 9.81277L199.494 9.75178L199.762 9.68547L200.031 9.61391L200.3 9.53721L200.568 9.45546L200.837 9.36876L201.105 9.27722L201.374 9.18097L201.643 9.08012L201.911 8.97481L202.18 8.86516L202.448 8.75132L202.717 8.63343L202.986 8.51164L203.254 8.38611L203.523 8.257L203.791 8.12447L204.06 7.98869L204.328 7.84984L204.597 7.70809L204.866 7.56362L205.134 7.41662L205.403 7.26727L205.671 7.11577L205.94 6.9623L206.209 6.80707L206.477 6.65027L206.746 6.49211L207.014 6.33277L207.283 6.17247L207.552 6.01142L207.82 5.84981L208.089 5.68785L208.357 5.52575L208.626 5.36372L208.895 5.20196L209.163 5.04068L209.432 4.88008L209.7 4.72038L209.969 4.56176L210.238 4.40444L210.506 4.24862L210.775 4.09449L211.043 3.94226L211.312 3.79211L211.581 3.64423L211.849 3.49882L212.118 3.35606L212.386 3.21614L212.655 3.07922L212.924 2.9455L213.192 2.81513L213.461 2.68828L213.729 2.56512L213.998 2.4458L214.267 2.33047L214.535 2.21928L214.804 2.11238L215.072 2.00989L215.341 1.91196L215.61 1.8187L215.878 1.73024L216.147 1.64668L216.415 1.56813L216.684 1.4947L216.953 1.42647L217.221 1.36354L217.49 1.30599L217.758 1.25388L218.027 1.20728L218.296 1.16626L218.564 1.13086L218.833 1.10114L219.101 1.07712L219.37 1.05885L219.639 1.04633L219.907 1.0396L220.176 1.03865L220.444 1.04349L220.713 1.05411L220.982 1.07051L221.25 1.09265L221.519 1.12051L221.787 1.15405L222.056 1.19324L222.325 1.23802L222.593 1.28833L222.862 1.34411L223.13 1.40529L223.399 1.47179L223.668 1.54353L223.936 1.62041L224.205 1.70234L224.473 1.78921L224.742 1.88092L225.011 1.97733L225.279 2.07834L225.548 2.18382L225.816 2.29362L226.085 2.4076L226.354 2.52563L226.622 2.64755L226.891 2.77321L227.159 2.90245L227.428 3.0351L227.697 3.17099L227.965 3.30995L228.234 3.4518L228.502 3.59636L228.771 3.74345L229.039 3.89287L229.308 4.04445L229.577 4.19798L229.845 4.35327L230.114 4.51012L230.382 4.66833L230.651 4.8277L230.92 4.98803L231.188 5.14911L231.457 5.31074L231.725 5.4727L231.994 5.6348L232.263 5.79683L232.531 5.95858L232.8 6.11984L233.068 6.2804L233.337 6.44007L233.606 6.59865L233.874 6.75592L234.143 6.91168L234.411 7.06575L234.68 7.21791L234.949 7.36799L235.217 7.51578L235.486 7.66109L235.754 7.80376L236.023 7.94358L236.292 8.08038L236.56 8.21399L236.829 8.34424L237.097 8.47096L237.366 8.59399L237.635 8.71317L237.903 8.82835L238.172 8.93939L238.44 9.04614L238.709 9.14847L238.978 9.24624L239.246 9.33933L239.515 9.42762L239.783 9.51101L240.052 9.58937L240.321 9.66262L240.589 9.73066L240.858 9.7934L241.126 9.85077L241.395 9.90268L241.664 9.94908L241.932 9.98991L242.201 10.0251L242.469 10.0546L242.738 10.0784L243.007 10.0965L243.275 10.1088L243.544 10.1153L243.812 10.1161L244.081 10.111L244.35 10.1002L244.618 10.0836L244.887 10.0613L245.155 10.0332L245.424 9.99947L245.693 9.96009L245.961 9.91511L246.23 9.86461L246.498 9.80863L246.767 9.74726L247.036 9.68057L247.304 9.60865L247.573 9.53159L247.841 9.44948L248.11 9.36244L248.379 9.27056L248.647 9.17398L248.916 9.07281L249.184 8.96718L249.453 8.85723L249.722 8.7431L249.99 8.62493L250.259 8.50287L250.527 8.37709L250.796 8.24773L251.065 8.11496L251.333 7.97896L251.602 7.83989L251.87 7.69794L252.139 7.55329L252.407 7.40612L252.676 7.25661L252.945 7.10496L253.213 6.95137L253.482 6.79602L253.75 6.63911L254.019 6.48086L254.288 6.32145L254.556 6.16109L254.825 5.99999L255.093 5.83835L255.362 5.67638L255.631 5.51427L255.899 5.35225L256.168 5.19052L256.436 5.02928L256.705 4.86874L256.974 4.7091L257.242 4.55058L257.511 4.39336L257.779 4.23765L258.048 4.08365L258.317 3.93155L258.585 3.78155L258.854 3.63385L259.122 3.48862L259.391 3.34606L259.66 3.20634L259.928 3.06965L260.197 2.93616L260.465 2.80603L260.734 2.67943L261.003 2.55654L261.271 2.4375L261.54 2.32246L261.808 2.21157L262.077 2.10498L262.346 2.00281L262.614 1.9052L262.883 1.81228L263.151 1.72416L263.42 1.64095L263.689 1.56276L263.957 1.4897L264.226 1.42184L264.494 1.35929L264.763 1.30212L265.032 1.2504L265.3 1.20419L265.569 1.16357L265.837 1.12857L266.106 1.09925L266.375 1.07564L266.643 1.05777L266.912 1.04566L267.18 1.03934L267.449 1.0388L267.718 1.04405L267.986 1.05509L268.255 1.07189L268.523 1.09443L268.792 1.1227L269.061 1.15664L269.329 1.19623L269.598 1.2414L269.866 1.2921L270.135 1.34827L270.404 1.40983L270.672 1.4767L270.941 1.54881L271.209 1.62605L271.478 1.70833L271.747 1.79555L272.015 1.88759L272.284 1.98434L272.552 2.08567L272.821 2.19145L273.09 2.30155L273.358 2.41583L273.627 2.53414L273.895 2.65633L274.164 2.78225L274.433 2.91173L274.701 3.04461L274.97 3.18073L275.238 3.3199L275.507 3.46194L275.776 3.60669L276.044 3.75395L276.313 3.90354L276.581 4.05526L276.85 4.20892L277.118 4.36433L277.387 4.52128L277.656 4.67958L277.924 4.83903L278.193 4.99942L278.461 5.16054L278.73 5.3222L278.999 5.48418L279.267 5.64628L279.536 5.80829L279.804 5.97001L280.073 6.13123L280.342 6.29174L280.61 6.45134L280.879 6.60983L281.147 6.767L281.416 6.92265L281.685 7.07659L281.953 7.22861L282.222 7.37853L282.49 7.52615L282.759 7.67128L283.028 7.81375L283.296 7.95337L283.565 8.08995L283.833 8.22333L284.102 8.35333L284.371 8.47979L284.639 8.60256L284.908 8.72146L285.176 8.83636L285.445 8.9471L285.714 9.05354L285.982 9.15554L286.251 9.25298L286.519 9.34574L286.788 9.43369L287.057 9.51672L287.325 9.59473L287.594 9.66761L287.862 9.73528L288.131 9.79764L288.4 9.85462L288.668 9.90615L288.937 9.95216L289.205 9.99258L289.474 10.0274L289.743 10.0565L290.011 10.0799L290.28 10.0976L290.548 10.1095L290.817 10.1156L291.086 10.1159L291.354 10.1105L291.623 10.0992L291.891 10.0822L292.16 10.0595L292.429 10.031L292.697 9.99687L292.966 9.95709L293.234 9.91172L293.503 9.86082L293.772 9.80446L294.04 9.74271L294.309 9.67565L294.577 9.60336L294.846 9.52594L295.115 9.44348L295.383 9.35609L295.652 9.26388L295.92 9.16697L296.189 9.06548L296.458 8.95954L296.726 8.84929L296.995 8.73486L297.263 8.61641L297.532 8.49409L297.801 8.36804L298.069 8.23843L298.338 8.10544L298.606 7.96921L298.875 7.82994L299.144 7.68779L299.412 7.54295L299.681 7.39561L299.949 7.24594L300.218 7.09415L300.486 6.94042L300.755 6.78496L301.024 6.62795L301.292 6.46961L301.561 6.31013L301.829 6.1497L302.098 5.98856L302.367 5.82689L302.635 5.6649L302.904 5.5028L303.172 5.34079L303.441 5.17909L303.71 5.01789L303.978 4.85741L304.247 4.69784L304.515 4.5394L304.784 4.38228L305.053 4.22668L305.321 4.07281L305.59 3.92086L305.858 3.77102L306.127 3.62348L306.396 3.47844L306.664 3.33607L306.933 3.19656L307.201 3.06009L307.47 2.92683L307.739 2.79694L308.007 2.67061L308.276 2.54798L308.544 2.42922L308.813 2.31447L309.082 2.20388L309.35 2.0976L309.619 1.99575L309.887 1.89847L310.156 1.80588L310.425 1.7181L310.693 1.63525L310.962 1.55742L311.23 1.48472L311.499 1.41724L311.768 1.35506L312.036 1.29827L312.305 1.24694L312.573 1.20113L312.842 1.1609L313.111 1.12631L313.379 1.09739L313.648 1.07418L313.916 1.05672L314.185 1.04503L314.454 1.03911L314.722 1.03898L314.991 1.04464L315.259 1.05608L315.528 1.07329L315.797 1.09625L316.065 1.12491L316.334 1.15926L316.602 1.19924L316.871 1.24481L317.14 1.2959L317.408 1.35245L317.677 1.41439L317.945 1.48164L318.214 1.55411L318.483 1.63171L318.751 1.71435L319.02 1.80191L319.288 1.89429L319.557 1.99136L319.826 2.09301L320.094 2.19911L320.363 2.30951L320.631 2.42408L320.9 2.54267L321.169 2.66513L321.437 2.7913L321.706 2.92103L321.974 3.05415L322.243 3.19049L322.512 3.32986L322.78 3.47211L323.049 3.61704L323.317 3.76447L323.586 3.91421L323.854 4.06608L324.123 4.21987L324.392 4.37539L324.66 4.53245L324.929 4.69084L325.197 4.85036L325.466 5.0108L325.735 5.17197L326.003 5.33366L326.272 5.49566L326.54 5.65776L326.809 5.81976L327.078 5.98145L327.346 6.14262L327.615 6.30308L327.883 6.46261L328.152 6.621L328.421 6.77807L328.689 6.93361L328.958 7.08742L329.226 7.2393L329.495 7.38906L329.764 7.53651L330.032 7.68146L330.301 7.82373L330.569 7.96314L330.838 8.0995L331.107 8.23265L331.375 8.36241L331.644 8.48861L331.912 8.6111L332.181 8.72973L332.45 8.84434L332.718 8.95477L332.987 9.0609L333.255 9.16259L333.524 9.25971L333.793 9.35213L334.061 9.43973L334.33 9.52241L334.598 9.60006L334.867 9.67257L335.136 9.73987L335.404 9.80185L335.673 9.85845L335.941 9.90959L336.21 9.9552L336.479 9.99524L336.747 10.0296L337.016 10.0583L337.284 10.0813L337.553 10.0986L337.822 10.1101L338.09 10.1158L338.359 10.1157L338.627 10.1099L338.896 10.0982L339.165 10.0808L339.433 10.0577L339.702 10.0288L339.97 9.99423L340.239 9.95405L340.508 9.90829L340.776 9.85701L341.045 9.80027L341.313 9.73814L341.582 9.6707L341.851 9.59805L342.119 9.52026L342.388 9.43745L342.656 9.34972L342.925 9.25717L343.194 9.15993L343.462 9.05812L343.731 8.95187L343.999 8.84132L344.268 8.72661L344.537 8.60788L344.805 8.48528L345.074 8.35898L345.342 8.22912L345.611 8.09589L345.88 7.95945L346.148 7.81996L346.417 7.67762L346.685 7.5326L346.954 7.38508L347.223 7.23526L347.491 7.08332L347.76 6.92947L348.028 6.77389L348.297 6.61678L348.565 6.45835L348.834 6.29879L349.103 6.13832L349.371 5.97713L349.64 5.81542L349.908 5.65342L350.177 5.49132L350.446 5.32933L350.714 5.16765L350.983 5.0065L351.251 4.84608L351.52 4.68658L351.789 4.52823L352.057 4.37121L352.326 4.21573L352.594 4.06199L352.863 3.91018L353.132 3.7605L353.4 3.61313L353.669 3.46827L353.937 3.32609L354.206 3.1868L354.475 3.05054L354.743 2.91751L355.012 2.78788L355.28 2.6618L355.549 2.53944L355.818 2.42096L356.086 2.3065L356.355 2.19621L356.623 2.09023L356.892 1.98871L357.161 1.89176L357.429 1.7995L357.698 1.71207L357.966 1.62957L358.235 1.5521L358.504 1.47977L358.772 1.41266L359.041 1.35086L359.309 1.29446L359.578 1.24351L359.847 1.1981L360.115 1.15827L360.384 1.12407L360.652 1.09556L360.921 1.07276L361.19 1.0557L361.458 1.04442L361.727 1.03891L361.995 1.03919L362.264 1.04526L362.533 1.05711L362.801 1.07473L363.07 1.09809L363.338 1.12716L363.607 1.16191L363.876 1.20228L364.144 1.24824L364.413 1.29972L364.681 1.35666L364.95 1.41898L365.219 1.4866L365.487 1.55944L365.756 1.6374L366.024 1.72039L366.293 1.80829L366.562 1.90101L366.83 1.99841L367.099 2.10038L367.367 2.20678L367.636 2.31748L367.905 2.43234L368.173 2.55121L368.442 2.67394L368.71 2.80038L368.979 2.93035L369.248 3.0637L369.516 3.20026L369.785 3.33984L370.053 3.48229L370.322 3.6274L370.591 3.775L370.859 3.9249L371.128 4.07691L371.396 4.23083L371.665 4.38647L371.933 4.54362L372.202 4.7021L372.471 4.86169L372.739 5.0222L373.008 5.18341L373.276 5.34512L373.545 5.50713L373.814 5.66924L374.082 5.83122L374.351 5.99288L374.619 6.15401L374.888 6.3144L375.157 6.47386L375.425 6.63217L375.694 6.78914L375.962 6.94456L376.231 7.09824L376.5 7.24998L376.768 7.39958L377.037 7.54686L377.305 7.69163L377.574 7.8337L377.843 7.9729L378.111 8.10904L378.38 8.24195L378.648 8.37146L378.917 8.49741L379.186 8.61963L379.454 8.73798L379.723 8.85229L379.991 8.96243L380.26 9.06825L380.529 9.16962L380.797 9.26641L381.066 9.35849L381.334 9.44575L381.603 9.52808L381.872 9.60536L382.14 9.67751L382.409 9.74444L382.677 9.80604L382.946 9.86225L383.215 9.913L383.483 9.95822L383.752 9.99786L384.02 10.0318L384.289 10.0602L384.558 10.0828L384.826 10.0996L385.095 10.1107L385.363 10.116L385.632 10.1155L385.901 10.1092L386.169 10.0972L386.438 10.0794L386.706 10.0558L386.975 10.0265L387.244 9.99157L387.512 9.951L387.781 9.90484L388.049 9.85317L388.318 9.79604L388.587 9.73354L388.855 9.66573L389.124 9.59271L389.392 9.51456L389.661 9.4314L389.93 9.34332L390.198 9.25043L390.467 9.15287L390.735 9.05074L391.004 8.94419L391.273 8.83333L391.541 8.71833L391.81 8.59932L392.078 8.47646L392.347 8.3499L392.616 8.2198L392.884 8.08633L393.153 7.94967L393.421 7.80998L393.69 7.66744L393.959 7.52223L394.227 7.37455L394.496 7.22457L394.764 7.07249L395.033 6.91851L395.301 6.76281L395.57 6.6056L395.839 6.44708L396.107 6.28746L396.376 6.12692L396.644 5.96569L396.913 5.80396L397.182 5.64194L397.45 5.47984L397.719 5.31787L397.987 5.15622L398.256 4.99511L398.525 4.83475L398.793 4.67533L399.062 4.51706L399.33 4.36014L399.599 4.20478L399.868 4.05117L400.136 3.8995L400.405 3.74998L400.673 3.60279L400.942 3.45811L401.211 3.31613L401.479 3.17704L401.748 3.04102L402.016 2.90822L402.285 2.77883L402.554 2.65301L402.822 2.53092L403.091 2.41272L403.359 2.29855L403.628 2.18856L403.897 2.0829L404.165 1.98169L404.434 1.88507L404.702 1.79315L404.971 1.70606L405.24 1.62392L405.508 1.54681L405.777 1.47484L406.045 1.40811L406.314 1.34669L406.583 1.29067L406.851 1.24012L407.12 1.19509L407.388 1.15566L407.657 1.12187L407.926 1.09375L408.194 1.07136L408.463 1.05472L408.731 1.04384L409 1.03874" stroke="#EFEFF0" stroke-width="2" stroke-miterlimit="10" stroke-linecap="round" stroke-linejoin="round"/>
</svg>
